<mxfile host="app.diagrams.net" modified="2024-06-12T17:22:42.693Z" agent="Mozilla/5.0 (Windows NT 10.0; Win64; x64) AppleWebKit/537.36 (KHTML, like Gecko) Chrome/125.0.0.0 Safari/537.36" etag="UOce4Q6XNo80bVjawzWX" version="24.5.2" type="device">
  <diagram name="Page-1" id="S8YTOZrHcixdIfj45pyo">
    <mxGraphModel dx="1992" dy="752" grid="1" gridSize="10" guides="1" tooltips="1" connect="1" arrows="1" fold="1" page="1" pageScale="1" pageWidth="850" pageHeight="1100" math="0" shadow="0">
      <root>
        <mxCell id="0" />
        <mxCell id="1" parent="0" />
        <mxCell id="y_LOewsV7nvVLv3fSRSS-117" value="" style="edgeStyle=orthogonalEdgeStyle;rounded=0;orthogonalLoop=1;jettySize=auto;html=1;" edge="1" parent="1" source="y_LOewsV7nvVLv3fSRSS-114" target="y_LOewsV7nvVLv3fSRSS-116">
          <mxGeometry relative="1" as="geometry" />
        </mxCell>
        <mxCell id="y_LOewsV7nvVLv3fSRSS-114" value="&lt;div style=&quot;font-size: 18px;&quot;&gt;&lt;b style=&quot;&quot;&gt;&lt;font style=&quot;font-size: 18px;&quot;&gt;&lt;br&gt;&lt;/font&gt;&lt;/b&gt;&lt;/div&gt;&lt;div style=&quot;font-size: 18px;&quot;&gt;&lt;b&gt;&lt;font style=&quot;font-size: 18px;&quot;&gt;&lt;br&gt;&lt;/font&gt;&lt;/b&gt;&lt;/div&gt;&lt;div style=&quot;font-size: 18px;&quot;&gt;&lt;b style=&quot;&quot;&gt;&lt;font style=&quot;font-size: 18px;&quot;&gt;Vehicle getVehicle()&lt;/font&gt;&lt;/b&gt;&lt;/div&gt;" style="rounded=0;whiteSpace=wrap;html=1;" vertex="1" parent="1">
          <mxGeometry x="280" y="590" width="220" height="130" as="geometry" />
        </mxCell>
        <mxCell id="y_LOewsV7nvVLv3fSRSS-115" value="&lt;b style=&quot;font-size: 19px;&quot;&gt;VehicleFactory&lt;/b&gt;" style="rounded=0;whiteSpace=wrap;html=1;" vertex="1" parent="1">
          <mxGeometry x="280" y="590" width="220" height="60" as="geometry" />
        </mxCell>
        <mxCell id="y_LOewsV7nvVLv3fSRSS-116" value="&lt;div style=&quot;font-size: 18px;&quot;&gt;&lt;b&gt;&lt;br&gt;&lt;/b&gt;&lt;/div&gt;&lt;div style=&quot;font-size: 18px;&quot;&gt;&lt;b&gt;&lt;br&gt;&lt;/b&gt;&lt;/div&gt;&lt;div style=&quot;font-size: 18px;&quot;&gt;&lt;b&gt;void average()&lt;/b&gt;&lt;/div&gt;" style="rounded=0;whiteSpace=wrap;html=1;" vertex="1" parent="1">
          <mxGeometry x="580" y="590" width="220" height="130" as="geometry" />
        </mxCell>
        <mxCell id="y_LOewsV7nvVLv3fSRSS-118" value="&lt;b&gt;&lt;font style=&quot;font-size: 18px;&quot;&gt;Vehicle&amp;lt;&amp;lt;Interface&amp;gt;&amp;gt;&lt;/font&gt;&lt;/b&gt;" style="rounded=0;whiteSpace=wrap;html=1;" vertex="1" parent="1">
          <mxGeometry x="580" y="590" width="220" height="60" as="geometry" />
        </mxCell>
        <mxCell id="y_LOewsV7nvVLv3fSRSS-119" value="&amp;nbsp; &amp;nbsp; &amp;nbsp; &amp;nbsp;has-a" style="text;html=1;align=center;verticalAlign=middle;resizable=0;points=[];autosize=1;strokeColor=none;fillColor=none;" vertex="1" parent="1">
          <mxGeometry x="480" y="618" width="80" height="30" as="geometry" />
        </mxCell>
        <mxCell id="y_LOewsV7nvVLv3fSRSS-122" value="" style="endArrow=classic;html=1;rounded=0;entryX=0.626;entryY=1.019;entryDx=0;entryDy=0;entryPerimeter=0;exitX=0.629;exitY=-0.023;exitDx=0;exitDy=0;exitPerimeter=0;" edge="1" parent="1" source="y_LOewsV7nvVLv3fSRSS-123" target="y_LOewsV7nvVLv3fSRSS-116">
          <mxGeometry width="50" height="50" relative="1" as="geometry">
            <mxPoint x="720" y="720" as="sourcePoint" />
            <mxPoint x="750" y="850" as="targetPoint" />
          </mxGeometry>
        </mxCell>
        <mxCell id="y_LOewsV7nvVLv3fSRSS-123" value="&lt;div&gt;&lt;br&gt;&lt;/div&gt;&lt;div&gt;&lt;br&gt;&lt;/div&gt;&lt;div&gt;&lt;br&gt;&lt;/div&gt;&lt;div&gt;&lt;br&gt;&lt;/div&gt;&lt;div&gt;&lt;div style=&quot;text-align: left;&quot;&gt;&lt;b style=&quot;background-color: initial; text-align: center;&quot;&gt;&lt;font style=&quot;font-size: 14px;&quot;&gt;average&lt;/font&gt;&lt;/b&gt;&lt;b&gt;(){&lt;/b&gt;&lt;/div&gt;&lt;div style=&quot;text-align: left;&quot;&gt;&lt;b&gt;&lt;br&gt;&lt;/b&gt;&lt;/div&gt;&lt;div style=&quot;text-align: left;&quot;&gt;&lt;b&gt;}&lt;/b&gt;&lt;/div&gt;&lt;/div&gt;" style="rounded=0;whiteSpace=wrap;html=1;" vertex="1" parent="1">
          <mxGeometry x="670" y="820" width="130" height="120" as="geometry" />
        </mxCell>
        <mxCell id="y_LOewsV7nvVLv3fSRSS-125" value="&lt;div&gt;&lt;br&gt;&lt;/div&gt;&lt;div&gt;&lt;br&gt;&lt;/div&gt;&lt;div&gt;&lt;br&gt;&lt;/div&gt;&lt;div&gt;&lt;br&gt;&lt;/div&gt;&lt;div style=&quot;text-align: left;&quot;&gt;&lt;b style=&quot;background-color: initial; text-align: center;&quot;&gt;&lt;font style=&quot;font-size: 13px;&quot;&gt;average&lt;/font&gt;&lt;/b&gt;&lt;b&gt;(){&lt;/b&gt;&lt;/div&gt;&lt;div style=&quot;text-align: left;&quot;&gt;&lt;b&gt;&lt;br&gt;&lt;/b&gt;&lt;/div&gt;&lt;div style=&quot;text-align: left;&quot;&gt;&lt;b&gt;}&lt;/b&gt;&lt;/div&gt;" style="rounded=0;whiteSpace=wrap;html=1;" vertex="1" parent="1">
          <mxGeometry x="490" y="820" width="130" height="120" as="geometry" />
        </mxCell>
        <mxCell id="y_LOewsV7nvVLv3fSRSS-126" value="&lt;div&gt;&lt;br&gt;&lt;/div&gt;&lt;div&gt;&lt;br&gt;&lt;/div&gt;&lt;div&gt;&lt;br&gt;&lt;/div&gt;&lt;div&gt;&lt;br&gt;&lt;/div&gt;&lt;div&gt;&lt;div style=&quot;text-align: left;&quot;&gt;&lt;b style=&quot;background-color: initial; text-align: center;&quot;&gt;&lt;font style=&quot;font-size: 14px;&quot;&gt;average&lt;/font&gt;&lt;/b&gt;&lt;b&gt;(){&lt;/b&gt;&lt;/div&gt;&lt;div style=&quot;text-align: left;&quot;&gt;&lt;b&gt;&lt;br&gt;&lt;/b&gt;&lt;/div&gt;&lt;div style=&quot;text-align: left;&quot;&gt;&lt;b&gt;}&lt;/b&gt;&lt;/div&gt;&lt;/div&gt;" style="rounded=0;whiteSpace=wrap;html=1;" vertex="1" parent="1">
          <mxGeometry x="840" y="820" width="130" height="120" as="geometry" />
        </mxCell>
        <mxCell id="y_LOewsV7nvVLv3fSRSS-127" value="" style="endArrow=classic;html=1;rounded=0;entryX=0.626;entryY=1.019;entryDx=0;entryDy=0;entryPerimeter=0;" edge="1" parent="1">
          <mxGeometry width="50" height="50" relative="1" as="geometry">
            <mxPoint x="890" y="815" as="sourcePoint" />
            <mxPoint x="780" y="720" as="targetPoint" />
          </mxGeometry>
        </mxCell>
        <mxCell id="y_LOewsV7nvVLv3fSRSS-128" value="" style="endArrow=classic;html=1;rounded=0;entryX=0.626;entryY=1.019;entryDx=0;entryDy=0;entryPerimeter=0;exitX=0.607;exitY=0.015;exitDx=0;exitDy=0;exitPerimeter=0;" edge="1" parent="1" source="y_LOewsV7nvVLv3fSRSS-125">
          <mxGeometry width="50" height="50" relative="1" as="geometry">
            <mxPoint x="644" y="815" as="sourcePoint" />
            <mxPoint x="610" y="720" as="targetPoint" />
          </mxGeometry>
        </mxCell>
        <mxCell id="y_LOewsV7nvVLv3fSRSS-129" value="is-a" style="text;html=1;align=center;verticalAlign=middle;resizable=0;points=[];autosize=1;strokeColor=none;fillColor=none;" vertex="1" parent="1">
          <mxGeometry x="530" y="748" width="40" height="30" as="geometry" />
        </mxCell>
        <mxCell id="y_LOewsV7nvVLv3fSRSS-130" value="is-a" style="text;html=1;align=center;verticalAlign=middle;whiteSpace=wrap;rounded=0;" vertex="1" parent="1">
          <mxGeometry x="670" y="760" width="60" height="30" as="geometry" />
        </mxCell>
        <mxCell id="y_LOewsV7nvVLv3fSRSS-131" value="is-a" style="text;html=1;align=center;verticalAlign=middle;whiteSpace=wrap;rounded=0;" vertex="1" parent="1">
          <mxGeometry x="780" y="760" width="60" height="30" as="geometry" />
        </mxCell>
        <mxCell id="y_LOewsV7nvVLv3fSRSS-134" value="&lt;b&gt;&lt;font style=&quot;font-size: 20px;&quot;&gt;Luxury V1&lt;/font&gt;&lt;/b&gt;" style="rounded=0;whiteSpace=wrap;html=1;" vertex="1" parent="1">
          <mxGeometry x="490" y="820" width="130" height="60" as="geometry" />
        </mxCell>
        <mxCell id="y_LOewsV7nvVLv3fSRSS-135" value="&lt;b&gt;&lt;font style=&quot;font-size: 18px;&quot;&gt;Luxury V2&lt;/font&gt;&lt;/b&gt;" style="rounded=0;whiteSpace=wrap;html=1;" vertex="1" parent="1">
          <mxGeometry x="670" y="820" width="130" height="60" as="geometry" />
        </mxCell>
        <mxCell id="y_LOewsV7nvVLv3fSRSS-136" value="&lt;b&gt;&lt;font style=&quot;font-size: 18px;&quot;&gt;Ordinary V1&lt;/font&gt;&lt;/b&gt;" style="rounded=0;whiteSpace=wrap;html=1;" vertex="1" parent="1">
          <mxGeometry x="840" y="820" width="130" height="60" as="geometry" />
        </mxCell>
        <mxCell id="y_LOewsV7nvVLv3fSRSS-137" value="&lt;blockquote style=&quot;margin: 0 0 0 40px; border: none; padding: 0px;&quot;&gt;&lt;span style=&quot;font-size: 18px;&quot;&gt;VehicleFactory getFactory(){&lt;/span&gt;&lt;/blockquote&gt;&lt;blockquote style=&quot;margin: 0 0 0 40px; border: none; padding: 0px;&quot;&gt;&lt;span style=&quot;font-size: 18px;&quot;&gt;&lt;br&gt;&lt;/span&gt;&lt;/blockquote&gt;&lt;blockquote style=&quot;margin: 0 0 0 40px; border: none; padding: 0px;&quot;&gt;&lt;span style=&quot;font-size: 18px;&quot;&gt;}&lt;/span&gt;&lt;/blockquote&gt;" style="rounded=0;whiteSpace=wrap;html=1;align=left;" vertex="1" parent="1">
          <mxGeometry x="-170" y="607.5" width="290" height="95" as="geometry" />
        </mxCell>
        <mxCell id="y_LOewsV7nvVLv3fSRSS-138" value="&amp;nbsp; &amp;nbsp; &amp;nbsp; &amp;nbsp;has-a" style="text;html=1;align=center;verticalAlign=middle;resizable=0;points=[];autosize=1;strokeColor=none;fillColor=none;" vertex="1" parent="1">
          <mxGeometry x="140" y="618" width="80" height="30" as="geometry" />
        </mxCell>
        <mxCell id="y_LOewsV7nvVLv3fSRSS-139" value="" style="edgeStyle=orthogonalEdgeStyle;rounded=0;orthogonalLoop=1;jettySize=auto;html=1;entryX=0;entryY=0.5;entryDx=0;entryDy=0;exitX=1.008;exitY=0.433;exitDx=0;exitDy=0;exitPerimeter=0;" edge="1" parent="1" source="y_LOewsV7nvVLv3fSRSS-137" target="y_LOewsV7nvVLv3fSRSS-114">
          <mxGeometry relative="1" as="geometry">
            <mxPoint x="110" y="648" as="sourcePoint" />
            <mxPoint x="190" y="648" as="targetPoint" />
            <Array as="points">
              <mxPoint x="150" y="649" />
              <mxPoint x="150" y="655" />
            </Array>
          </mxGeometry>
        </mxCell>
        <mxCell id="y_LOewsV7nvVLv3fSRSS-140" value="&lt;div&gt;&lt;br&gt;&lt;/div&gt;&lt;div&gt;&lt;br&gt;&lt;/div&gt;&lt;div&gt;&lt;br&gt;&lt;/div&gt;&lt;div&gt;&lt;br&gt;&lt;/div&gt;&lt;div&gt;&lt;div style=&quot;text-align: left;&quot;&gt;&lt;b style=&quot;background-color: initial; text-align: center;&quot;&gt;&lt;font style=&quot;font-size: 14px;&quot;&gt;average&lt;/font&gt;&lt;/b&gt;&lt;b&gt;(){&lt;/b&gt;&lt;/div&gt;&lt;div style=&quot;text-align: left;&quot;&gt;&lt;b&gt;&lt;br&gt;&lt;/b&gt;&lt;/div&gt;&lt;div style=&quot;text-align: left;&quot;&gt;&lt;b&gt;}&lt;/b&gt;&lt;/div&gt;&lt;/div&gt;" style="rounded=0;whiteSpace=wrap;html=1;" vertex="1" parent="1">
          <mxGeometry x="1000" y="820" width="130" height="120" as="geometry" />
        </mxCell>
        <mxCell id="y_LOewsV7nvVLv3fSRSS-141" value="&lt;b&gt;&lt;font style=&quot;font-size: 18px;&quot;&gt;Ordinary V2&lt;/font&gt;&lt;/b&gt;" style="rounded=0;whiteSpace=wrap;html=1;" vertex="1" parent="1">
          <mxGeometry x="1000" y="820" width="130" height="60" as="geometry" />
        </mxCell>
        <mxCell id="y_LOewsV7nvVLv3fSRSS-142" value="" style="endArrow=classic;html=1;rounded=0;entryX=0.626;entryY=1.019;entryDx=0;entryDy=0;entryPerimeter=0;exitX=0.25;exitY=0;exitDx=0;exitDy=0;" edge="1" parent="1" source="y_LOewsV7nvVLv3fSRSS-141">
          <mxGeometry width="50" height="50" relative="1" as="geometry">
            <mxPoint x="910" y="810.5" as="sourcePoint" />
            <mxPoint x="800" y="715.5" as="targetPoint" />
          </mxGeometry>
        </mxCell>
        <mxCell id="y_LOewsV7nvVLv3fSRSS-143" value="is-a" style="text;html=1;align=center;verticalAlign=middle;whiteSpace=wrap;rounded=0;" vertex="1" parent="1">
          <mxGeometry x="910" y="748" width="60" height="30" as="geometry" />
        </mxCell>
        <mxCell id="y_LOewsV7nvVLv3fSRSS-144" value="" style="rounded=0;whiteSpace=wrap;html=1;" vertex="1" parent="1">
          <mxGeometry x="130" y="810" width="140" height="120" as="geometry" />
        </mxCell>
        <mxCell id="y_LOewsV7nvVLv3fSRSS-145" value="&lt;b&gt;&lt;font style=&quot;font-size: 20px;&quot;&gt;LuxuryFactory&lt;/font&gt;&lt;/b&gt;" style="rounded=0;whiteSpace=wrap;html=1;" vertex="1" parent="1">
          <mxGeometry x="130" y="810" width="140" height="60" as="geometry" />
        </mxCell>
        <mxCell id="y_LOewsV7nvVLv3fSRSS-146" value="" style="rounded=0;whiteSpace=wrap;html=1;" vertex="1" parent="1">
          <mxGeometry x="310" y="810" width="160" height="120" as="geometry" />
        </mxCell>
        <mxCell id="y_LOewsV7nvVLv3fSRSS-147" value="&lt;b&gt;&lt;font style=&quot;font-size: 20px;&quot;&gt;OrdinaryFactory&lt;/font&gt;&lt;/b&gt;" style="rounded=0;whiteSpace=wrap;html=1;" vertex="1" parent="1">
          <mxGeometry x="310" y="810" width="160" height="60" as="geometry" />
        </mxCell>
        <mxCell id="y_LOewsV7nvVLv3fSRSS-148" value="" style="endArrow=classic;html=1;rounded=0;entryX=0.626;entryY=1.019;entryDx=0;entryDy=0;entryPerimeter=0;exitX=0.607;exitY=0.015;exitDx=0;exitDy=0;exitPerimeter=0;" edge="1" parent="1">
          <mxGeometry width="50" height="50" relative="1" as="geometry">
            <mxPoint x="239" y="814" as="sourcePoint" />
            <mxPoint x="280" y="712" as="targetPoint" />
          </mxGeometry>
        </mxCell>
        <mxCell id="y_LOewsV7nvVLv3fSRSS-149" value="" style="endArrow=classic;html=1;rounded=0;entryX=0.626;entryY=1.019;entryDx=0;entryDy=0;entryPerimeter=0;exitX=0.75;exitY=0;exitDx=0;exitDy=0;" edge="1" parent="1" source="y_LOewsV7nvVLv3fSRSS-147">
          <mxGeometry width="50" height="50" relative="1" as="geometry">
            <mxPoint x="420" y="800" as="sourcePoint" />
            <mxPoint x="371" y="718" as="targetPoint" />
          </mxGeometry>
        </mxCell>
        <mxCell id="y_LOewsV7nvVLv3fSRSS-150" value="" style="endArrow=classic;html=1;rounded=0;exitX=0.25;exitY=1;exitDx=0;exitDy=0;" edge="1" parent="1">
          <mxGeometry width="50" height="50" relative="1" as="geometry">
            <mxPoint x="370" y="939.9999999999998" as="sourcePoint" />
            <mxPoint x="920" y="950" as="targetPoint" />
            <Array as="points">
              <mxPoint x="370" y="1030" />
              <mxPoint x="920" y="1030" />
            </Array>
          </mxGeometry>
        </mxCell>
        <mxCell id="y_LOewsV7nvVLv3fSRSS-151" value="" style="endArrow=classic;html=1;rounded=0;exitX=0.25;exitY=1;exitDx=0;exitDy=0;" edge="1" parent="1">
          <mxGeometry width="50" height="50" relative="1" as="geometry">
            <mxPoint x="160" y="929.9999999999998" as="sourcePoint" />
            <mxPoint x="710" y="940" as="targetPoint" />
            <Array as="points">
              <mxPoint x="160" y="1020" />
              <mxPoint x="710" y="1020" />
            </Array>
          </mxGeometry>
        </mxCell>
        <mxCell id="y_LOewsV7nvVLv3fSRSS-153" value="" style="endArrow=classic;html=1;rounded=0;entryX=0.71;entryY=1.081;entryDx=0;entryDy=0;entryPerimeter=0;" edge="1" parent="1">
          <mxGeometry width="50" height="50" relative="1" as="geometry">
            <mxPoint x="530" y="1020" as="sourcePoint" />
            <mxPoint x="528.4000000000001" y="940" as="targetPoint" />
          </mxGeometry>
        </mxCell>
        <mxCell id="y_LOewsV7nvVLv3fSRSS-154" value="" style="endArrow=classic;html=1;rounded=0;entryX=0.71;entryY=1.081;entryDx=0;entryDy=0;entryPerimeter=0;" edge="1" parent="1">
          <mxGeometry width="50" height="50" relative="1" as="geometry">
            <mxPoint x="1051.6" y="1030" as="sourcePoint" />
            <mxPoint x="1050" y="950" as="targetPoint" />
          </mxGeometry>
        </mxCell>
        <mxCell id="y_LOewsV7nvVLv3fSRSS-156" value="" style="endArrow=none;html=1;rounded=0;" edge="1" parent="1">
          <mxGeometry width="50" height="50" relative="1" as="geometry">
            <mxPoint x="920" y="1030" as="sourcePoint" />
            <mxPoint x="1050" y="1030" as="targetPoint" />
            <Array as="points" />
          </mxGeometry>
        </mxCell>
        <mxCell id="y_LOewsV7nvVLv3fSRSS-157" value="is-a" style="text;html=1;align=center;verticalAlign=middle;resizable=0;points=[];autosize=1;strokeColor=none;fillColor=none;" vertex="1" parent="1">
          <mxGeometry x="190" y="760" width="40" height="30" as="geometry" />
        </mxCell>
        <mxCell id="y_LOewsV7nvVLv3fSRSS-158" value="is-a" style="text;html=1;align=center;verticalAlign=middle;resizable=0;points=[];autosize=1;strokeColor=none;fillColor=none;" vertex="1" parent="1">
          <mxGeometry x="350" y="760" width="40" height="30" as="geometry" />
        </mxCell>
        <mxCell id="y_LOewsV7nvVLv3fSRSS-159" value="&lt;b&gt;factory2 : return factory object&lt;/b&gt;" style="text;html=1;align=center;verticalAlign=middle;resizable=0;points=[];autosize=1;strokeColor=none;fillColor=none;" vertex="1" parent="1">
          <mxGeometry x="-140" y="570" width="200" height="30" as="geometry" />
        </mxCell>
        <mxCell id="y_LOewsV7nvVLv3fSRSS-160" value="&lt;b&gt;Factory1: returns product itself&lt;/b&gt;" style="text;html=1;align=center;verticalAlign=middle;resizable=0;points=[];autosize=1;strokeColor=none;fillColor=none;" vertex="1" parent="1">
          <mxGeometry x="301" y="550" width="200" height="30" as="geometry" />
        </mxCell>
      </root>
    </mxGraphModel>
  </diagram>
</mxfile>
